<?xml version="1.0" encoding="UTF-8" standalone="no"?>
<!-- Created with Inkscape (http://www.inkscape.org/) -->

<svg
   xmlns:dc="http://purl.org/dc/elements/1.1/"
   xmlns:cc="http://creativecommons.org/ns#"
   xmlns:rdf="http://www.w3.org/1999/02/22-rdf-syntax-ns#"
   xmlns:svg="http://www.w3.org/2000/svg"
   xmlns="http://www.w3.org/2000/svg"
   xmlns:xlink="http://www.w3.org/1999/xlink"
   xmlns:sodipodi="http://sodipodi.sourceforge.net/DTD/sodipodi-0.dtd"
   xmlns:inkscape="http://www.inkscape.org/namespaces/inkscape"
   width="207.81868mm"
   height="194.4382mm"
   viewBox="0 0 207.81868 194.4382"
   version="1.1"
   id="svg3749"
   inkscape:version="0.92.5 (2060ec1f9f, 2020-04-08)"
   sodipodi:docname="eager_logo.svg">
  <defs
     id="defs3743">
    <linearGradient
       inkscape:collect="always"
       id="linearGradient7524">
      <stop
         style="stop-color:#000000;stop-opacity:1;"
         offset="0"
         id="stop7520" />
      <stop
         style="stop-color:#000000;stop-opacity:0;"
         offset="1"
         id="stop7522" />
    </linearGradient>
    <linearGradient
       inkscape:collect="always"
       id="linearGradient7504">
      <stop
         style="stop-color:#135fff;stop-opacity:1"
         offset="0"
         id="stop7500" />
      <stop
         style="stop-color:#cf0100;stop-opacity:1"
         offset="1"
         id="stop7502" />
    </linearGradient>
    <inkscape:path-effect
       effect="spiro"
       id="path-effect6574"
       is_visible="true" />
    <inkscape:path-effect
       effect="spiro"
       id="path-effect6570"
       is_visible="true" />
    <inkscape:path-effect
       effect="spiro"
       id="path-effect6566"
       is_visible="true" />
    <inkscape:path-effect
       effect="spiro"
       id="path-effect6562"
       is_visible="true" />
    <inkscape:path-effect
       effect="spiro"
       id="path-effect6558"
       is_visible="true" />
    <inkscape:path-effect
       effect="spiro"
       id="path-effect6552"
       is_visible="true" />
    <inkscape:path-effect
       effect="bspline"
       id="path-effect6544"
       is_visible="true"
       weight="33.333333"
       steps="2"
       helper_size="0"
       apply_no_weight="true"
       apply_with_weight="true"
       only_selected="false" />
    <inkscape:path-effect
       effect="bspline"
       id="path-effect6540"
       is_visible="true"
       weight="33.333333"
       steps="2"
       helper_size="0"
       apply_no_weight="true"
       apply_with_weight="true"
       only_selected="false" />
    <inkscape:path-effect
       effect="bspline"
       id="path-effect3799"
       is_visible="true"
       weight="33.333333"
       steps="2"
       helper_size="0"
       apply_no_weight="true"
       apply_with_weight="true"
       only_selected="false" />
    <inkscape:path-effect
       effect="bspline"
       id="path-effect3795"
       is_visible="true"
       weight="33.333333"
       steps="2"
       helper_size="0"
       apply_no_weight="true"
       apply_with_weight="true"
       only_selected="false" />
    <inkscape:path-effect
       effect="spiro"
       id="path-effect3785"
       is_visible="true" />
    <linearGradient
       inkscape:collect="always"
       xlink:href="#linearGradient7504"
       id="linearGradient7506"
       x1="577.14288"
       y1="872.51971"
       x2="565.71429"
       y2="129.66254"
       gradientUnits="userSpaceOnUse" />
    <linearGradient
       inkscape:collect="always"
       xlink:href="#linearGradient7524"
       id="linearGradient7526"
       x1="62.545433"
       y1="252.49651"
       x2="149.07129"
       y2="252.49651"
       gradientUnits="userSpaceOnUse" />
    <linearGradient
       inkscape:collect="always"
       xlink:href="#linearGradient7524"
       id="linearGradient7528"
       gradientUnits="userSpaceOnUse"
       x1="107.74541"
       y1="276.14526"
       x2="107.61198"
       y2="228.48724"
       gradientTransform="translate(-14.716271,-0.08154744)" />
  </defs>
  <sodipodi:namedview
     id="base"
     pagecolor="#ffffff"
     bordercolor="#666666"
     borderopacity="1.0"
     inkscape:pageopacity="0.0"
     inkscape:pageshadow="2"
     inkscape:zoom="0.7"
     inkscape:cx="50.241895"
     inkscape:cy="393.33966"
     inkscape:document-units="mm"
     inkscape:current-layer="layer1"
     showgrid="false"
     inkscape:window-width="1920"
     inkscape:window-height="1043"
     inkscape:window-x="0"
     inkscape:window-y="0"
     inkscape:window-maximized="1" />
  <metadata
     id="metadata3746">
    <rdf:RDF>
      <cc:Work
         rdf:about="">
        <dc:format>image/svg+xml</dc:format>
        <dc:type
           rdf:resource="http://purl.org/dc/dcmitype/StillImage" />
        <dc:title />
      </cc:Work>
    </rdf:RDF>
  </metadata>
  <g
     inkscape:label="Layer 1"
     inkscape:groupmode="layer"
     id="layer1"
     transform="translate(-30.780776,-51.638397)">
    <path
       style="color:#000000;font-style:normal;font-variant:normal;font-weight:normal;font-stretch:normal;font-size:medium;line-height:normal;font-family:sans-serif;font-variant-ligatures:normal;font-variant-position:normal;font-variant-caps:normal;font-variant-numeric:normal;font-variant-alternates:normal;font-feature-settings:normal;text-indent:0;text-align:start;text-decoration:none;text-decoration-line:none;text-decoration-style:solid;text-decoration-color:#000000;letter-spacing:normal;word-spacing:normal;text-transform:none;writing-mode:lr-tb;direction:ltr;text-orientation:mixed;dominant-baseline:auto;baseline-shift:baseline;text-anchor:start;white-space:normal;shape-padding:0;clip-rule:nonzero;display:inline;overflow:visible;visibility:visible;opacity:1;isolation:auto;mix-blend-mode:normal;color-interpolation:sRGB;color-interpolation-filters:linearRGB;solid-color:#000000;solid-opacity:1;vector-effect:none;fill:#ffffff;fill-opacity:1;fill-rule:nonzero;stroke:url(#linearGradient7506);stroke-width:15.11811066;stroke-linecap:round;stroke-linejoin:round;stroke-miterlimit:4;stroke-dasharray:none;stroke-dashoffset:0;stroke-opacity:1;paint-order:normal;color-rendering:auto;image-rendering:auto;shape-rendering:auto;text-rendering:auto;enable-background:accumulate"
       d="m 444.0625,202.74219 c -10.04534,0.14021 -20.07355,1.28754 -29.90234,3.50781 -38.38536,8.67106 -72.55339,33.02487 -95.15821,65.21094 -22.60247,32.18274 -33.84252,71.75591 -33.85351,111.06054 -0.006,20.24089 2.87372,40.47576 8.52344,59.91211 l -41.29297,65.5 a 0.56788652,0.56788652 0 1 0 0.96093,0.60547 l 41.41602,-65.70117 0.01,-0.0137 a 0.56698564,0.56698564 0 0 0 0.004,-0.004 0.56885606,0.56885606 0 0 0 0.0254,-0.0449 0.56698564,0.56698564 0 0 0 0.002,-0.006 0.56698564,0.56698564 0 0 0 0.0117,-0.49609 c -5.64974,-19.38083 -8.52907,-39.56446 -8.52343,-59.75196 0.011,-39.08861 11.19367,-78.44052 33.64648,-110.41015 22.45048,-31.96632 56.39926,-56.15154 94.48047,-64.75391 44.56789,-10.06766 93.3415,2.03599 128.92383,30.7168 35.58504,28.68303 57.64816,73.13032 60.38476,118.76562 0.61855,10.315 0.25577,20.63816 -1.00195,30.84961 l -0.002,-0.008 c -27.96605,7.18379 -53.4938,23.52225 -71.73047,45.9082 -22.03608,27.04982 -33.07122,62.78781 -30.125,97.55274 l 1.1289,-0.0977 c -2.92059,-34.46226 8.03077,-69.92401 29.875,-96.73828 17.98422,-22.0761 43.13786,-38.22817 70.69141,-45.4082 -5.76233,44.24741 -28.36343,86.32317 -61.44922,116.58398 -41.02171,37.51907 -96.92297,57.24233 -152.53906,57.89649 -13.79563,0.16216 -27.60652,-0.78813 -41.25,-2.83789 a 0.56698564,0.56698564 0 0 0 -0.17774,-0.0273 0.56698564,0.56698564 0 0 0 -0.49414,0.30274 l -19.85742,35.46289 -31.15234,4.25195 a 0.56698564,0.56698564 0 0 0 -0.50195,0.6875 0.56698564,0.56698564 0 0 0 0,0.002 0.56698564,0.56698564 0 0 0 0.25585,0.35938 0.56698564,0.56698564 0 0 0 0.10352,0.0488 0.56698564,0.56698564 0 0 0 0.22266,0.0332 0.56698564,0.56698564 0 0 0 0.0762,-0.008 c 31.89719,-4.34963 62.83428,-8.56788 88.95117,-7.85547 26.1157,0.71229 46.96524,6.40862 64.73242,16.83203 17.76722,10.42345 32.46532,25.59852 41.75196,41.44922 9.27977,15.83887 12.97579,31.49093 16.78125,47.66406 a 0.56823806,0.56823806 0 0 0 0.0195,0.0859 0.56698564,0.56698564 0 0 0 1.10156,-0.004 c 9.98024,-18.0594 19.95421,-36.08702 33.94726,-55.06055 14.02164,-19.01223 32.07043,-38.96471 55.32813,-54.39062 23.12447,-15.33749 51.46903,-26.2436 79.875,-37.13281 3.12943,6.27678 6.88095,12.34378 11.26172,18.11523 a 0.56698564,0.56698564 0 1 0 0.90039,-0.68554 c -4.40026,-5.79712 -8.15777,-11.89509 -11.2832,-18.20508 a 0.56698564,0.56698564 0 0 0 -0.17774,-0.36719 c -21.41964,-43.64257 -12.61368,-97.31944 23.98828,-131.78125 42.00329,-39.54728 107.06358,-41.03719 150.83399,-3.45508 43.77044,37.58211 52.13723,102.1133 19.39843,149.61524 -32.71662,47.46975 -95.94239,62.63686 -146.625,35.18554 a 0.56698564,0.56698564 0 0 0 -0.41406,-0.13672 0.56698564,0.56698564 0 0 0 -0.0156,0.002 0.56698564,0.56698564 0 0 0 -0.041,0.006 0.56698564,0.56698564 0 0 0 -0.49023,0.58398 c -10.15091,41.03973 -20.30212,81.93752 -54.04297,117.5625 -33.75402,35.63885 -91.2666,66.09682 -148.83984,96.54883 -53.28073,-2.85435 -106.52773,-5.71951 -148.53907,-16.875 -42.04656,-11.16488 -72.9322,-30.6465 -103.88086,-50.16797 a 0.56796608,0.56796608 0 0 0 -0.0117,-0.008 0.56698564,0.56698564 0 0 0 -0.0371,-0.0215 0.56796608,0.56796608 0 0 0 -0.0117,-0.006 0.56698564,0.56698564 0 0 0 -0.32813,-0.0605 0.56698564,0.56698564 0 0 0 -0.0898,0.0195 c -29.42285,4.49406 -60.39704,-1.86705 -85.66602,-17.59571 -25.29078,-15.74226 -44.68131,-40.75348 -53.6289,-69.16796 -5.2093,-16.54296 -6.9445,-34.25698 -4.24414,-51.3711 2.70006,-17.11234 9.91967,-33.59249 21.27539,-46.65234 15.54608,-17.87909 38.83676,-28.81148 62.52343,-29.34375 23.62311,-0.53088 47.31904,9.28767 63.64844,26.36523 a 0.56698564,0.56698564 0 0 0 0.75195,0.29492 0.56698564,0.56698564 0 0 0 0.006,-0.002 0.56698564,0.56698564 0 0 0 0.008,-0.004 0.56698564,0.56698564 0 0 0 0.32226,-0.33008 l 92.26758,-126.33203 c 5.19113,8.68956 14.24753,14.95063 24.22851,16.67382 11.5335,1.99117 23.05553,-1.80132 34.4375,-2.8496 16.87071,-1.55381 34.25496,3.04141 48.1543,12.72851 a 0.56818609,0.56818609 0 0 0 0.67578,0.043 c 22.09418,-14.48251 37.61836,-38.57018 41.67969,-64.67383 3.62997,-23.33137 -1.86266,-47.94227 -15.06055,-67.52148 -13.19788,-19.57922 -33.94645,-33.89904 -56.93554,-39.28711 -5.74727,-1.34702 -11.61654,-2.13198 -17.50977,-2.36914 -17.67968,-0.71149 -35.57238,3.50485 -50.96484,12.26172 -20.49105,11.65748 -36.31984,31.22329 -43.45117,53.69336 a 0.56698564,0.56698564 0 0 0 -0.0605,0.18359 0.56698564,0.56698564 0 0 0 0.22851,0.60351 c 7.37169,11.15976 17.92411,20.18667 30.09961,25.72266 8.56132,3.89273 17.97667,6.0793 27.40039,5.75781 8.56717,-0.29215 16.86282,-2.6177 25.0625,-4.76172 8.19844,-2.14374 16.51905,-4.13386 24.89063,-3.80859 14.66124,0.56967 28.85752,8.75689 36.68945,21.16406 a 0.56845341,0.56845341 0 0 0 0.0645,0.084 0.56728566,0.56728566 0 0 0 0.01,0.01 0.56845341,0.56845341 0 0 0 0.004,0.006 0.56728566,0.56728566 0 0 0 0.0312,0.0293 0.56845341,0.56845341 0 0 0 0.0391,0.0293 0.56728566,0.56728566 0 0 0 0.01,0.008 0.56845341,0.56845341 0 0 0 0.008,0.006 0.56728566,0.56728566 0 0 0 0.0371,0.0215 0.56845341,0.56845341 0 0 0 0.28515,0.0723 0.56728566,0.56728566 0 0 0 0.043,-0.004 0.56845341,0.56845341 0 0 0 0.16407,-0.0391 0.56728566,0.56728566 0 0 0 0.0137,-0.006 0.56845341,0.56845341 0 0 0 0.0391,-0.0195 0.56728566,0.56728566 0 0 0 0.0117,-0.006 0.56845341,0.56845341 0 0 0 0.082,-0.0566 0.56728566,0.56728566 0 0 0 0.002,0 0.56728566,0.56728566 0 0 0 0.008,-0.008 0.56845341,0.56845341 0 0 0 0.1543,-0.21875 0.56728566,0.56728566 0 0 0 0.006,-0.0137 0.56845341,0.56845341 0 0 0 0.0352,-0.18945 c 9e-5,-0.007 -9e-5,-0.013 0,-0.0195 a 0.56728566,0.56728566 0 0 0 0,-0.006 c 0.21269,-16.20084 -6.78427,-32.33609 -18.75586,-43.25391 -8.19118,-7.47017 -18.57953,-12.49609 -29.52149,-14.27734 -5.47094,-0.89062 -11.06902,-0.96305 -16.56445,-0.25781 -5.49543,0.70524 -10.88432,2.19233 -15.95312,4.43555 a 0.56698564,0.56698564 0 1 0 0.45898,1.0332 c 9.93245,-4.39565 21.15448,-5.83504 31.875,-4.08985 10.72048,1.7452 20.91205,6.67124 28.9375,13.99024 11.26479,10.27326 18.03308,25.31097 18.36133,40.54687 -8.21554,-11.83615 -22.11547,-19.53955 -36.5293,-20.09961 -8.57941,-0.33335 -17.01117,1.69804 -25.22461,3.84571 -8.21223,2.14734 -16.42975,4.43857 -24.8164,4.72461 -9.2222,0.31445 -18.46246,-1.83266 -26.88477,-5.66211 -11.96851,-5.44191 -22.35989,-14.32218 -29.61133,-25.28906 7.06585,-22.12489 22.69463,-41.41521 42.88281,-52.9004 20.26693,-11.52997 44.95433,-15.0942 67.65625,-9.77343 22.70193,5.32076 43.22284,19.48761 56.25586,38.82226 13.03306,19.33466 18.45966,43.66906 14.875,66.70899 -3.99097,25.65162 -19.21706,49.36763 -40.86718,63.68945 -14.07754,-9.71109 -31.59185,-14.30686 -48.62305,-12.73828 -11.55795,1.0645 -22.96706,4.79133 -34.13477,2.86328 -9.88854,-1.7072 -18.89825,-8.05302 -23.84179,-16.78516 a 0.56698564,0.56698564 0 0 0 -0.44336,-0.36523 0.56698564,0.56698564 0 0 0 -0.0215,-0.004 0.56698564,0.56698564 0 0 0 -0.0137,0 0.56698564,0.56698564 0 0 0 -0.14258,0 v -0.002 a 0.56698564,0.56698564 0 0 0 -0.43164,0.3125 l -92.4082,126.53125 c -16.54536,-17.10307 -40.36423,-26.90968 -64.1582,-26.375 -24.01823,0.53975 -47.58788,11.60504 -63.35157,29.73437 -11.50943,13.23667 -18.80993,29.91176 -21.54101,47.22071 -2.7308,17.3071 -0.97403,35.19348 4.2832,51.88867 9.03128,28.68023 28.58791,53.90549 54.11524,69.79492 25.46584,15.85121 56.644,22.26481 86.30078,17.76953 30.89431,19.48716 61.87229,39.00163 104.02734,50.19532 42.235,11.21487 95.5973,14.07063 148.92969,16.92773 a 0.56917009,0.56917009 0 0 0 0.16601,-0.0176 0.56797002,0.56797002 0 0 0 0.004,0 0.56917009,0.56917009 0 0 0 0.125,-0.0488 c 0.0103,-0.005 0.0209,-0.0102 0.0312,-0.0156 a 0.56917009,0.56917009 0 0 0 0.008,-0.004 c 57.60739,-30.47001 115.24416,-60.93965 149.23828,-96.83203 33.80943,-35.69734 44.071,-76.65713 54.17774,-117.51562 19.02576,10.17541 39.77275,14.43396 60.02734,13.29882 34.13768,-1.91323 66.86335,-19.12913 87.52735,-49.11132 33.0624,-47.97147 24.61125,-113.16949 -19.5918,-151.12305 -44.20309,-37.9536 -109.92919,-36.45382 -152.34766,3.48437 -36.85557,34.7006 -45.80362,88.71341 -24.41406,132.72266 -28.37562,10.87759 -56.74804,21.79735 -79.99609,37.2168 -23.40771,15.52535 -41.5504,35.57481 -55.62305,54.65625 -13.74153,18.63243 -23.60875,36.35295 -33.37695,54.02539 -3.69755,-15.69616 -7.46302,-31.05287 -16.57618,-46.60742 -9.3908,-16.02841 -24.21228,-31.32718 -42.1582,-41.85547 -17.94588,-10.52822 -39.00552,-16.26218 -65.26953,-16.97852 -17.2215,-0.46975 -36.49151,1.20045 -56.69922,3.62305 L 347.44951,561.704 c 13.60667,2.02798 27.37279,2.97225 41.1289,2.81054 55.87506,-0.65718 112.04468,-20.4597 153.29883,-58.1914 41.25963,-37.73666 66.3232,-93.70987 62.97461,-149.55078 -2.75573,-45.95472 -24.95251,-90.67977 -60.80469,-119.57813 -26.89122,-21.67543 -61.23026,-33.94999 -95.67578,-34.45117 -1.43523,-0.0209 -2.87159,-0.022 -4.30664,-0.002 z m 338.13086,244.85937 c -31.61703,0 -57.26172,25.64277 -57.26172,57.25977 0,31.61703 25.64469,57.2539 57.26172,57.2539 31.61703,0 57.25391,-25.63687 57.25391,-57.2539 0,-31.617 -25.63688,-57.25977 -57.25391,-57.25977 z m 0,1.12891 c 31.00422,0 56.12305,25.12664 56.12305,56.13086 0,31.00426 -25.11883,56.125 -56.12305,56.125 -31.00426,0 -56.13281,-25.12074 -56.13281,-56.125 0,-31.00422 25.12855,-56.13086 56.13281,-56.13086 z"
       transform="scale(0.26458333)"
       id="path3781"
       inkscape:connector-curvature="0" />
    <text
       xml:space="preserve"
       style="font-style:normal;font-weight:normal;font-size:35.30683899px;line-height:1.25;font-family:sans-serif;letter-spacing:0px;word-spacing:0px;fill:#000000;fill-opacity:1;stroke:none;stroke-width:0.60000002;stroke-miterlimit:4;stroke-dasharray:none;"
       x="46.046738"
       y="265.02579"
       id="text7510"
       transform="scale(1.0787378,0.92700933)"><tspan
         sodipodi:role="line"
         id="tspan7508"
         x="46.046738"
         y="265.02579"
         style="font-style:italic;font-variant:normal;font-weight:normal;font-stretch:normal;font-family:'Open Sans Condensed';-inkscape-font-specification:'Open Sans Condensed, ';fill:#000000;fill-opacity:1;stroke:none;stroke-width:0.60000002;stroke-miterlimit:4;stroke-dasharray:none;">EAGER <tspan
   style="font-style:normal;font-size:22.57777786px;fill:#000000;fill-opacity:0.41666666"
   id="tspan7586">to learn</tspan>  </tspan></text>
  </g>
</svg>
